<svg width="78" height="151" viewBox="0 0 78 151" fill="none" xmlns="http://www.w3.org/2000/svg">
<mask id="path-1-outside-1" maskUnits="userSpaceOnUse" x="0" y="0" width="78" height="151" fill="black">
<rect fill="white" width="78" height="151"/>
<path fill-rule="evenodd" clip-rule="evenodd" d="M69 1C73.4183 1 77 4.58172 77 9V9.99576C77 10.333 76.9791 10.6653 76.9386 10.9915C76.9791 11.3178 77 11.6501 77 11.9873V13.9789C77 14.3161 76.9791 14.6484 76.9386 14.9746C76.9791 15.3009 77 15.6332 77 15.9704V17.962C77 18.2992 76.9791 18.6315 76.9386 18.9578C76.9791 19.284 77 19.6163 77 19.9535V21.9451C77 22.2823 76.9791 22.6146 76.9386 22.9409C76.9791 23.2671 77 23.5994 77 23.9366V25.9282C77 26.2654 76.9791 26.5977 76.9386 26.924C76.9791 27.2502 77 27.5825 77 27.9198V29.9113C77 30.2485 76.9791 30.5808 76.9386 30.9071C76.9791 31.2333 77 31.5657 77 31.9029V33.8944C77 34.2316 76.9791 34.5639 76.9386 34.8902C76.9791 35.2164 77 35.5488 77 35.886V37.8775C77 38.2147 76.9791 38.5471 76.9386 38.8733C76.9791 39.1995 77 39.5319 77 39.8691V41.8606C77 42.1978 76.9791 42.5302 76.9386 42.8564C76.9791 43.1826 77 43.515 77 43.8522V45.8437C77 46.1809 76.9791 46.5133 76.9386 46.8395C76.9791 47.1657 77 47.4981 77 47.8353V49.8268C77 50.164 76.9791 50.4964 76.9386 50.8226C76.9791 51.1488 77 51.4812 77 51.8184V53.8099C77 54.1471 76.9791 54.4795 76.9386 54.8057C76.9791 55.132 77 55.4643 77 55.8015V57.793C77 58.1302 76.9791 58.4626 76.9386 58.7888C76.9791 59.1151 77 59.4474 77 59.7846V61.7761C77 62.1133 76.9791 62.4457 76.9386 62.7719C76.9791 63.0982 77 63.4305 77 63.7677V65.7592C77 66.0965 76.9791 66.4288 76.9386 66.755C76.9791 67.0813 77 67.4136 77 67.7508V69.7423C77 70.0795 76.9791 70.4119 76.9386 70.7381C76.9791 71.0644 77 71.3967 77 71.7339V73.7254C77 74.0626 76.9791 74.395 76.9386 74.7212C76.9791 75.0475 77 75.3798 77 75.717V77.7085C77 78.0457 76.9791 78.3781 76.9386 78.7043C76.9791 79.0306 77 79.3629 77 79.7001V81.6917C77 82.0289 76.9791 82.3612 76.9386 82.6874C76.9791 83.0137 77 83.346 77 83.6832V85.6748C77 86.012 76.9791 86.3443 76.9386 86.6705C76.9791 86.9968 77 87.3291 77 87.6663V89.6579C77 89.9951 76.9791 90.3274 76.9386 90.6536C76.9791 90.9799 77 91.3122 77 91.6494V93.641C77 93.9782 76.9791 94.3105 76.9386 94.6367C76.9791 94.963 77 95.2953 77 95.6325V97.6241C77 97.9613 76.9791 98.2936 76.9386 98.6198C76.9791 98.9461 77 99.2784 77 99.6156V101.607C77 101.944 76.9791 102.277 76.9386 102.603C76.9791 102.929 77 103.262 77 103.599V105.59C77 105.927 76.9791 106.26 76.9386 106.586C76.9791 106.912 77 107.245 77 107.582V108.578C77 108.984 76.9953 109.389 76.9858 109.791C76.9763 110.196 76.9368 110.594 76.8696 110.981C76.9001 111.375 76.9018 111.775 76.8729 112.18C76.8149 112.992 76.7372 113.794 76.6403 114.587C76.5905 114.994 76.5109 115.39 76.404 115.774C76.3946 116.173 76.3551 116.576 76.2838 116.982C76.1402 117.798 75.9756 118.603 75.7904 119.395C75.696 119.8 75.5725 120.189 75.4225 120.563C75.3687 120.963 75.2837 121.364 75.1663 121.764C74.9287 122.571 74.6694 123.364 74.3889 124.142C74.2454 124.54 74.0737 124.92 73.8767 125.279C73.7744 125.677 73.64 126.073 73.4722 126.462C73.1386 127.236 72.7835 127.994 72.4078 128.734C72.2137 129.117 71.993 129.477 71.7491 129.814C71.5961 130.202 71.4108 130.582 71.1922 130.952C70.7614 131.681 70.3101 132.391 69.8393 133.082C69.5966 133.438 69.3302 133.768 69.0437 134.072C68.8411 134.438 68.6072 134.792 68.3415 135.132C67.8163 135.803 67.2721 136.452 66.7102 137.08C66.4231 137.401 66.116 137.693 65.7923 137.957C65.5437 138.292 65.2655 138.612 64.9578 138.913C64.3493 139.509 63.7242 140.081 63.084 140.63C62.7566 140.911 62.413 141.16 62.0568 141.379C61.7659 141.679 61.4476 141.96 61.1025 142.218C60.4237 142.727 59.7311 143.211 59.0261 143.67C58.6657 143.904 58.2935 144.106 57.9128 144.276C57.5861 144.535 57.2349 144.771 56.8601 144.982C56.1221 145.397 55.3729 145.787 54.6141 146.151C54.2272 146.336 53.8327 146.488 53.4342 146.607C53.0774 146.821 52.6993 147.009 52.3013 147.17C51.5186 147.485 50.7275 147.774 49.9296 148.037C49.5218 148.171 49.1109 148.271 48.7001 148.338C48.3186 148.504 47.9191 148.643 47.5035 148.751C46.6864 148.963 45.8636 149.148 45.0367 149.307C44.6148 149.388 44.1944 149.434 43.7782 149.447C43.3781 149.563 42.9637 149.649 42.5373 149.702C41.6976 149.807 40.8549 149.884 40.0108 149.934C39.5799 149.959 39.1549 149.95 38.7386 149.908C38.3246 149.971 37.9003 150.002 37.4682 149.999C36.6184 149.992 35.7685 149.957 34.92 149.893C34.4868 149.861 34.0643 149.794 33.6549 149.697C33.2334 149.703 32.8059 149.676 32.3754 149.614C31.5285 149.491 30.6845 149.339 29.8453 149.157C29.4172 149.064 29.0046 148.939 28.6096 148.784C28.1879 148.731 27.7649 148.644 27.3439 148.521C26.5166 148.279 25.6959 148.006 24.8835 147.702C24.4697 147.548 24.0762 147.363 23.7047 147.15C23.2917 147.036 22.8825 146.887 22.4807 146.702C21.6938 146.34 20.9174 145.947 20.1533 145.523C19.7646 145.308 19.4008 145.065 19.0632 144.798C18.6699 144.622 18.2855 144.413 17.9141 144.168C17.187 143.69 16.4745 143.181 15.7784 142.643C15.4274 142.371 15.1052 142.076 14.8123 141.762C14.4511 141.529 14.1039 141.265 13.7746 140.967C13.1324 140.388 12.508 139.781 11.903 139.146C11.5962 138.824 11.3215 138.484 11.0789 138.128C10.756 137.844 10.4519 137.53 10.1703 137.187C9.63017 136.529 9.1099 135.847 8.61061 135.14C8.35845 134.784 8.13958 134.414 7.95338 134.034C7.67984 133.712 7.42823 133.365 7.20215 132.993C6.76305 132.269 6.34489 131.525 5.94846 130.761C5.75243 130.383 5.58952 129.996 5.45868 129.605C5.23655 129.258 5.03836 128.89 4.86731 128.502C4.53318 127.743 4.2194 126.967 3.92651 126.174C3.78174 125.781 3.66963 125.385 3.5888 124.988C3.41346 124.624 3.2635 124.242 3.1418 123.844C2.90604 123.073 2.68906 122.287 2.49122 121.487C2.39244 121.088 2.32553 120.688 2.28889 120.291C2.1556 119.916 2.04862 119.527 1.97053 119.124C1.82077 118.353 1.68799 117.569 1.57244 116.774C1.51438 116.374 1.48693 115.977 1.48832 115.585C1.39282 115.206 1.32394 114.816 1.28393 114.415C1.20742 113.65 1.14622 112.874 1.10051 112.088C1.07755 111.693 1.08362 111.304 1.11687 110.921C1.05459 110.543 1.01871 110.156 1.01121 109.762C1.00375 109.37 1 108.975 1 108.578C1 104.159 4.58172 100.578 9 100.578C13.4183 100.578 17 104.159 17 108.578C17 108.874 17.0028 109.168 17.0083 109.458C17.0138 109.746 17.004 110.031 16.9795 110.312C17.0252 110.59 17.0568 110.872 17.0735 111.159C17.1066 111.728 17.1505 112.283 17.2046 112.825C17.2326 113.105 17.2458 113.383 17.2448 113.658C17.3119 113.924 17.3659 114.196 17.4062 114.473C17.486 115.022 17.5766 115.556 17.6774 116.076C17.7293 116.343 17.7672 116.61 17.7917 116.876C17.8806 117.125 17.958 117.382 18.023 117.645C18.1526 118.169 18.293 118.676 18.4432 119.168C18.5196 119.418 18.5833 119.669 18.6344 119.921C18.7451 120.15 18.8458 120.387 18.936 120.631C19.1174 121.123 19.3092 121.597 19.5104 122.053C19.612 122.284 19.7019 122.517 19.7802 122.752C19.9129 122.959 20.0373 123.174 20.1527 123.396C20.3852 123.844 20.6274 124.275 20.8785 124.688C21.0061 124.899 21.1229 125.112 21.2291 125.329C21.3847 125.512 21.5335 125.703 21.6748 125.903C21.9541 126.298 22.2425 126.676 22.5392 127.038C22.6923 127.224 22.8355 127.416 22.969 127.611C23.1463 127.767 23.3183 127.932 23.4843 128.106C23.8121 128.45 24.1488 128.778 24.4938 129.089C24.6694 129.247 24.8363 129.412 24.9945 129.582C25.1896 129.707 25.381 129.842 25.5679 129.987C25.9404 130.275 26.3218 130.547 26.7112 130.804C26.9094 130.934 27.0999 131.072 27.2825 131.216C27.4954 131.311 27.706 131.416 27.9137 131.531C28.3251 131.759 28.7448 131.972 29.1719 132.169C29.3896 132.269 29.6006 132.378 29.8047 132.494C30.0319 132.557 30.2582 132.63 30.4832 132.714C30.9288 132.881 31.3816 133.031 31.8407 133.166C32.074 133.234 32.3019 133.312 32.5239 133.399C32.7612 133.429 32.9992 133.469 33.2374 133.521C33.7089 133.623 34.1857 133.709 34.6671 133.779C34.9113 133.814 35.1514 133.86 35.3869 133.917C35.6295 133.913 35.8744 133.92 36.1211 133.939C36.6086 133.975 37.0992 133.996 37.592 133.999C37.8419 134.001 38.0891 134.015 38.333 134.039C38.5757 134.002 38.8223 133.976 39.0723 133.961C39.5656 133.932 40.0597 133.887 40.5533 133.825C40.8032 133.794 41.0518 133.775 41.2985 133.767C41.5359 133.698 41.7786 133.64 42.0261 133.593C42.5143 133.499 43.0008 133.389 43.4844 133.264C43.7292 133.2 43.9744 133.149 44.2192 133.109C44.4466 133.01 44.6806 132.92 44.9209 132.841C45.3936 132.685 45.862 132.514 46.3254 132.328C46.5597 132.233 46.7958 132.151 47.0331 132.08C47.2455 131.953 47.4656 131.834 47.6932 131.725C48.1416 131.51 48.5837 131.28 49.0186 131.035C49.2382 130.912 49.461 130.8 49.6865 130.699C49.88 130.546 50.0823 130.401 50.2932 130.263C50.7074 129.993 51.1137 129.709 51.5113 129.412C51.7123 129.261 51.918 129.122 52.1278 128.993C52.2992 128.816 52.4801 128.646 52.6706 128.482C53.0448 128.162 53.4098 127.827 53.7648 127.48C53.9435 127.305 54.1282 127.14 54.3183 126.985C54.4644 126.789 54.6208 126.597 54.7875 126.41C55.1154 126.044 55.4334 125.664 55.7406 125.272C55.8954 125.074 56.0577 124.885 56.2268 124.706C56.3463 124.49 56.4769 124.278 56.6185 124.07C56.8951 123.665 57.1612 123.246 57.4161 122.814C57.5452 122.596 57.683 122.386 57.8289 122.184C57.9205 121.953 58.0237 121.723 58.1387 121.496C58.3631 121.054 58.5766 120.598 58.7783 120.13C58.8798 119.895 58.9911 119.667 59.1118 119.447C59.1745 119.202 59.2493 118.959 59.3365 118.717C59.5085 118.24 59.669 117.75 59.8172 117.246C59.8905 116.997 59.975 116.754 60.0698 116.518C60.1039 116.264 60.1504 116.01 60.2098 115.756C60.3273 115.253 60.4329 114.737 60.5258 114.209C60.5721 113.946 60.6307 113.689 60.7009 113.437C60.7071 113.175 60.7261 112.91 60.7587 112.644C60.8226 112.121 60.8745 111.587 60.9135 111.04C60.9331 110.766 60.9662 110.497 61.0121 110.232C60.9913 109.963 60.9837 109.691 60.9902 109.416C60.9967 109.139 61 108.86 61 108.578V107.582C61 107.245 61.0209 106.912 61.0614 106.586C61.0209 106.26 61 105.927 61 105.59V103.599C61 103.262 61.0209 102.929 61.0614 102.603C61.0209 102.277 61 101.944 61 101.607V99.6156C61 99.2784 61.0209 98.9461 61.0614 98.6198C61.0209 98.2936 61 97.9613 61 97.6241V95.6325C61 95.2953 61.0209 94.963 61.0614 94.6367C61.0209 94.3105 61 93.9782 61 93.641V91.6494C61 91.3122 61.0209 90.9799 61.0614 90.6536C61.0209 90.3274 61 89.9951 61 89.6579V87.6663C61 87.3291 61.0209 86.9968 61.0614 86.6705C61.0209 86.3443 61 86.012 61 85.6748V83.6832C61 83.346 61.0209 83.0137 61.0614 82.6874C61.0209 82.3612 61 82.0289 61 81.6917V79.7001C61 79.3629 61.0209 79.0306 61.0614 78.7043C61.0209 78.3781 61 78.0457 61 77.7085V75.717C61 75.3798 61.0209 75.0475 61.0614 74.7212C61.0209 74.395 61 74.0627 61 73.7254V71.7339C61 71.3967 61.0209 71.0644 61.0614 70.7381C61.0209 70.4119 61 70.0795 61 69.7423V67.7508C61 67.4136 61.0209 67.0813 61.0614 66.755C61.0209 66.4288 61 66.0965 61 65.7592V63.7677C61 63.4305 61.0209 63.0982 61.0614 62.7719C61.0209 62.4457 61 62.1133 61 61.7761V59.7846C61 59.4474 61.0209 59.1151 61.0614 58.7888C61.0209 58.4626 61 58.1302 61 57.793V55.8015C61 55.4643 61.0209 55.132 61.0614 54.8057C61.0209 54.4795 61 54.1471 61 53.8099V51.8184C61 51.4812 61.0209 51.1488 61.0614 50.8226C61.0209 50.4964 61 50.164 61 49.8268V47.8353C61 47.4981 61.0209 47.1657 61.0614 46.8395C61.0209 46.5133 61 46.1809 61 45.8437V43.8522C61 43.515 61.0209 43.1826 61.0614 42.8564C61.0209 42.5302 61 42.1978 61 41.8606V39.8691C61 39.5319 61.0209 39.1995 61.0614 38.8733C61.0209 38.5471 61 38.2147 61 37.8775V35.886C61 35.5488 61.0209 35.2164 61.0614 34.8902C61.0209 34.5639 61 34.2316 61 33.8944V31.9029C61 31.5657 61.0209 31.2333 61.0614 30.9071C61.0209 30.5808 61 30.2485 61 29.9113V27.9198C61 27.5826 61.0209 27.2502 61.0614 26.924C61.0209 26.5977 61 26.2654 61 25.9282V23.9366C61 23.5994 61.0209 23.2671 61.0614 22.9409C61.0209 22.6146 61 22.2823 61 21.9451V19.9535C61 19.6163 61.0209 19.284 61.0614 18.9578C61.0209 18.6315 61 18.2992 61 17.962V15.9704C61 15.6332 61.0209 15.3009 61.0614 14.9746C61.0209 14.6484 61 14.3161 61 13.9789V11.9873C61 11.6501 61.0209 11.3178 61.0614 10.9915C61.0209 10.6653 61 10.333 61 9.99576V9C61 4.58172 64.5817 1 69 1Z"/>
</mask>
<path fill-rule="evenodd" clip-rule="evenodd" d="M69 1C73.4183 1 77 4.58172 77 9V9.99576C77 10.333 76.9791 10.6653 76.9386 10.9915C76.9791 11.3178 77 11.6501 77 11.9873V13.9789C77 14.3161 76.9791 14.6484 76.9386 14.9746C76.9791 15.3009 77 15.6332 77 15.9704V17.962C77 18.2992 76.9791 18.6315 76.9386 18.9578C76.9791 19.284 77 19.6163 77 19.9535V21.9451C77 22.2823 76.9791 22.6146 76.9386 22.9409C76.9791 23.2671 77 23.5994 77 23.9366V25.9282C77 26.2654 76.9791 26.5977 76.9386 26.924C76.9791 27.2502 77 27.5825 77 27.9198V29.9113C77 30.2485 76.9791 30.5808 76.9386 30.9071C76.9791 31.2333 77 31.5657 77 31.9029V33.8944C77 34.2316 76.9791 34.5639 76.9386 34.8902C76.9791 35.2164 77 35.5488 77 35.886V37.8775C77 38.2147 76.9791 38.5471 76.9386 38.8733C76.9791 39.1995 77 39.5319 77 39.8691V41.8606C77 42.1978 76.9791 42.5302 76.9386 42.8564C76.9791 43.1826 77 43.515 77 43.8522V45.8437C77 46.1809 76.9791 46.5133 76.9386 46.8395C76.9791 47.1657 77 47.4981 77 47.8353V49.8268C77 50.164 76.9791 50.4964 76.9386 50.8226C76.9791 51.1488 77 51.4812 77 51.8184V53.8099C77 54.1471 76.9791 54.4795 76.9386 54.8057C76.9791 55.132 77 55.4643 77 55.8015V57.793C77 58.1302 76.9791 58.4626 76.9386 58.7888C76.9791 59.1151 77 59.4474 77 59.7846V61.7761C77 62.1133 76.9791 62.4457 76.9386 62.7719C76.9791 63.0982 77 63.4305 77 63.7677V65.7592C77 66.0965 76.9791 66.4288 76.9386 66.755C76.9791 67.0813 77 67.4136 77 67.7508V69.7423C77 70.0795 76.9791 70.4119 76.9386 70.7381C76.9791 71.0644 77 71.3967 77 71.7339V73.7254C77 74.0626 76.9791 74.395 76.9386 74.7212C76.9791 75.0475 77 75.3798 77 75.717V77.7085C77 78.0457 76.9791 78.3781 76.9386 78.7043C76.9791 79.0306 77 79.3629 77 79.7001V81.6917C77 82.0289 76.9791 82.3612 76.9386 82.6874C76.9791 83.0137 77 83.346 77 83.6832V85.6748C77 86.012 76.9791 86.3443 76.9386 86.6705C76.9791 86.9968 77 87.3291 77 87.6663V89.6579C77 89.9951 76.9791 90.3274 76.9386 90.6536C76.9791 90.9799 77 91.3122 77 91.6494V93.641C77 93.9782 76.9791 94.3105 76.9386 94.6367C76.9791 94.963 77 95.2953 77 95.6325V97.6241C77 97.9613 76.9791 98.2936 76.9386 98.6198C76.9791 98.9461 77 99.2784 77 99.6156V101.607C77 101.944 76.9791 102.277 76.9386 102.603C76.9791 102.929 77 103.262 77 103.599V105.59C77 105.927 76.9791 106.26 76.9386 106.586C76.9791 106.912 77 107.245 77 107.582V108.578C77 108.984 76.9953 109.389 76.9858 109.791C76.9763 110.196 76.9368 110.594 76.8696 110.981C76.9001 111.375 76.9018 111.775 76.8729 112.18C76.8149 112.992 76.7372 113.794 76.6403 114.587C76.5905 114.994 76.5109 115.39 76.404 115.774C76.3946 116.173 76.3551 116.576 76.2838 116.982C76.1402 117.798 75.9756 118.603 75.7904 119.395C75.696 119.8 75.5725 120.189 75.4225 120.563C75.3687 120.963 75.2837 121.364 75.1663 121.764C74.9287 122.571 74.6694 123.364 74.3889 124.142C74.2454 124.54 74.0737 124.92 73.8767 125.279C73.7744 125.677 73.64 126.073 73.4722 126.462C73.1386 127.236 72.7835 127.994 72.4078 128.734C72.2137 129.117 71.993 129.477 71.7491 129.814C71.5961 130.202 71.4108 130.582 71.1922 130.952C70.7614 131.681 70.3101 132.391 69.8393 133.082C69.5966 133.438 69.3302 133.768 69.0437 134.072C68.8411 134.438 68.6072 134.792 68.3415 135.132C67.8163 135.803 67.2721 136.452 66.7102 137.08C66.4231 137.401 66.116 137.693 65.7923 137.957C65.5437 138.292 65.2655 138.612 64.9578 138.913C64.3493 139.509 63.7242 140.081 63.084 140.63C62.7566 140.911 62.413 141.16 62.0568 141.379C61.7659 141.679 61.4476 141.96 61.1025 142.218C60.4237 142.727 59.7311 143.211 59.0261 143.67C58.6657 143.904 58.2935 144.106 57.9128 144.276C57.5861 144.535 57.2349 144.771 56.8601 144.982C56.1221 145.397 55.3729 145.787 54.6141 146.151C54.2272 146.336 53.8327 146.488 53.4342 146.607C53.0774 146.821 52.6993 147.009 52.3013 147.17C51.5186 147.485 50.7275 147.774 49.9296 148.037C49.5218 148.171 49.1109 148.271 48.7001 148.338C48.3186 148.504 47.9191 148.643 47.5035 148.751C46.6864 148.963 45.8636 149.148 45.0367 149.307C44.6148 149.388 44.1944 149.434 43.7782 149.447C43.3781 149.563 42.9637 149.649 42.5373 149.702C41.6976 149.807 40.8549 149.884 40.0108 149.934C39.5799 149.959 39.1549 149.95 38.7386 149.908C38.3246 149.971 37.9003 150.002 37.4682 149.999C36.6184 149.992 35.7685 149.957 34.92 149.893C34.4868 149.861 34.0643 149.794 33.6549 149.697C33.2334 149.703 32.8059 149.676 32.3754 149.614C31.5285 149.491 30.6845 149.339 29.8453 149.157C29.4172 149.064 29.0046 148.939 28.6096 148.784C28.1879 148.731 27.7649 148.644 27.3439 148.521C26.5166 148.279 25.6959 148.006 24.8835 147.702C24.4697 147.548 24.0762 147.363 23.7047 147.15C23.2917 147.036 22.8825 146.887 22.4807 146.702C21.6938 146.34 20.9174 145.947 20.1533 145.523C19.7646 145.308 19.4008 145.065 19.0632 144.798C18.6699 144.622 18.2855 144.413 17.9141 144.168C17.187 143.69 16.4745 143.181 15.7784 142.643C15.4274 142.371 15.1052 142.076 14.8123 141.762C14.4511 141.529 14.1039 141.265 13.7746 140.967C13.1324 140.388 12.508 139.781 11.903 139.146C11.5962 138.824 11.3215 138.484 11.0789 138.128C10.756 137.844 10.4519 137.53 10.1703 137.187C9.63017 136.529 9.1099 135.847 8.61061 135.14C8.35845 134.784 8.13958 134.414 7.95338 134.034C7.67984 133.712 7.42823 133.365 7.20215 132.993C6.76305 132.269 6.34489 131.525 5.94846 130.761C5.75243 130.383 5.58952 129.996 5.45868 129.605C5.23655 129.258 5.03836 128.89 4.86731 128.502C4.53318 127.743 4.2194 126.967 3.92651 126.174C3.78174 125.781 3.66963 125.385 3.5888 124.988C3.41346 124.624 3.2635 124.242 3.1418 123.844C2.90604 123.073 2.68906 122.287 2.49122 121.487C2.39244 121.088 2.32553 120.688 2.28889 120.291C2.1556 119.916 2.04862 119.527 1.97053 119.124C1.82077 118.353 1.68799 117.569 1.57244 116.774C1.51438 116.374 1.48693 115.977 1.48832 115.585C1.39282 115.206 1.32394 114.816 1.28393 114.415C1.20742 113.65 1.14622 112.874 1.10051 112.088C1.07755 111.693 1.08362 111.304 1.11687 110.921C1.05459 110.543 1.01871 110.156 1.01121 109.762C1.00375 109.37 1 108.975 1 108.578C1 104.159 4.58172 100.578 9 100.578C13.4183 100.578 17 104.159 17 108.578C17 108.874 17.0028 109.168 17.0083 109.458C17.0138 109.746 17.004 110.031 16.9795 110.312C17.0252 110.59 17.0568 110.872 17.0735 111.159C17.1066 111.728 17.1505 112.283 17.2046 112.825C17.2326 113.105 17.2458 113.383 17.2448 113.658C17.3119 113.924 17.3659 114.196 17.4062 114.473C17.486 115.022 17.5766 115.556 17.6774 116.076C17.7293 116.343 17.7672 116.61 17.7917 116.876C17.8806 117.125 17.958 117.382 18.023 117.645C18.1526 118.169 18.293 118.676 18.4432 119.168C18.5196 119.418 18.5833 119.669 18.6344 119.921C18.7451 120.15 18.8458 120.387 18.936 120.631C19.1174 121.123 19.3092 121.597 19.5104 122.053C19.612 122.284 19.7019 122.517 19.7802 122.752C19.9129 122.959 20.0373 123.174 20.1527 123.396C20.3852 123.844 20.6274 124.275 20.8785 124.688C21.0061 124.899 21.1229 125.112 21.2291 125.329C21.3847 125.512 21.5335 125.703 21.6748 125.903C21.9541 126.298 22.2425 126.676 22.5392 127.038C22.6923 127.224 22.8355 127.416 22.969 127.611C23.1463 127.767 23.3183 127.932 23.4843 128.106C23.8121 128.45 24.1488 128.778 24.4938 129.089C24.6694 129.247 24.8363 129.412 24.9945 129.582C25.1896 129.707 25.381 129.842 25.5679 129.987C25.9404 130.275 26.3218 130.547 26.7112 130.804C26.9094 130.934 27.0999 131.072 27.2825 131.216C27.4954 131.311 27.706 131.416 27.9137 131.531C28.3251 131.759 28.7448 131.972 29.1719 132.169C29.3896 132.269 29.6006 132.378 29.8047 132.494C30.0319 132.557 30.2582 132.63 30.4832 132.714C30.9288 132.881 31.3816 133.031 31.8407 133.166C32.074 133.234 32.3019 133.312 32.5239 133.399C32.7612 133.429 32.9992 133.469 33.2374 133.521C33.7089 133.623 34.1857 133.709 34.6671 133.779C34.9113 133.814 35.1514 133.86 35.3869 133.917C35.6295 133.913 35.8744 133.92 36.1211 133.939C36.6086 133.975 37.0992 133.996 37.592 133.999C37.8419 134.001 38.0891 134.015 38.333 134.039C38.5757 134.002 38.8223 133.976 39.0723 133.961C39.5656 133.932 40.0597 133.887 40.5533 133.825C40.8032 133.794 41.0518 133.775 41.2985 133.767C41.5359 133.698 41.7786 133.64 42.0261 133.593C42.5143 133.499 43.0008 133.389 43.4844 133.264C43.7292 133.2 43.9744 133.149 44.2192 133.109C44.4466 133.01 44.6806 132.92 44.9209 132.841C45.3936 132.685 45.862 132.514 46.3254 132.328C46.5597 132.233 46.7958 132.151 47.0331 132.08C47.2455 131.953 47.4656 131.834 47.6932 131.725C48.1416 131.51 48.5837 131.28 49.0186 131.035C49.2382 130.912 49.461 130.8 49.6865 130.699C49.88 130.546 50.0823 130.401 50.2932 130.263C50.7074 129.993 51.1137 129.709 51.5113 129.412C51.7123 129.261 51.918 129.122 52.1278 128.993C52.2992 128.816 52.4801 128.646 52.6706 128.482C53.0448 128.162 53.4098 127.827 53.7648 127.48C53.9435 127.305 54.1282 127.14 54.3183 126.985C54.4644 126.789 54.6208 126.597 54.7875 126.41C55.1154 126.044 55.4334 125.664 55.7406 125.272C55.8954 125.074 56.0577 124.885 56.2268 124.706C56.3463 124.49 56.4769 124.278 56.6185 124.07C56.8951 123.665 57.1612 123.246 57.4161 122.814C57.5452 122.596 57.683 122.386 57.8289 122.184C57.9205 121.953 58.0237 121.723 58.1387 121.496C58.3631 121.054 58.5766 120.598 58.7783 120.13C58.8798 119.895 58.9911 119.667 59.1118 119.447C59.1745 119.202 59.2493 118.959 59.3365 118.717C59.5085 118.24 59.669 117.75 59.8172 117.246C59.8905 116.997 59.975 116.754 60.0698 116.518C60.1039 116.264 60.1504 116.01 60.2098 115.756C60.3273 115.253 60.4329 114.737 60.5258 114.209C60.5721 113.946 60.6307 113.689 60.7009 113.437C60.7071 113.175 60.7261 112.91 60.7587 112.644C60.8226 112.121 60.8745 111.587 60.9135 111.04C60.9331 110.766 60.9662 110.497 61.0121 110.232C60.9913 109.963 60.9837 109.691 60.9902 109.416C60.9967 109.139 61 108.86 61 108.578V107.582C61 107.245 61.0209 106.912 61.0614 106.586C61.0209 106.26 61 105.927 61 105.59V103.599C61 103.262 61.0209 102.929 61.0614 102.603C61.0209 102.277 61 101.944 61 101.607V99.6156C61 99.2784 61.0209 98.9461 61.0614 98.6198C61.0209 98.2936 61 97.9613 61 97.6241V95.6325C61 95.2953 61.0209 94.963 61.0614 94.6367C61.0209 94.3105 61 93.9782 61 93.641V91.6494C61 91.3122 61.0209 90.9799 61.0614 90.6536C61.0209 90.3274 61 89.9951 61 89.6579V87.6663C61 87.3291 61.0209 86.9968 61.0614 86.6705C61.0209 86.3443 61 86.012 61 85.6748V83.6832C61 83.346 61.0209 83.0137 61.0614 82.6874C61.0209 82.3612 61 82.0289 61 81.6917V79.7001C61 79.3629 61.0209 79.0306 61.0614 78.7043C61.0209 78.3781 61 78.0457 61 77.7085V75.717C61 75.3798 61.0209 75.0475 61.0614 74.7212C61.0209 74.395 61 74.0627 61 73.7254V71.7339C61 71.3967 61.0209 71.0644 61.0614 70.7381C61.0209 70.4119 61 70.0795 61 69.7423V67.7508C61 67.4136 61.0209 67.0813 61.0614 66.755C61.0209 66.4288 61 66.0965 61 65.7592V63.7677C61 63.4305 61.0209 63.0982 61.0614 62.7719C61.0209 62.4457 61 62.1133 61 61.7761V59.7846C61 59.4474 61.0209 59.1151 61.0614 58.7888C61.0209 58.4626 61 58.1302 61 57.793V55.8015C61 55.4643 61.0209 55.132 61.0614 54.8057C61.0209 54.4795 61 54.1471 61 53.8099V51.8184C61 51.4812 61.0209 51.1488 61.0614 50.8226C61.0209 50.4964 61 50.164 61 49.8268V47.8353C61 47.4981 61.0209 47.1657 61.0614 46.8395C61.0209 46.5133 61 46.1809 61 45.8437V43.8522C61 43.515 61.0209 43.1826 61.0614 42.8564C61.0209 42.5302 61 42.1978 61 41.8606V39.8691C61 39.5319 61.0209 39.1995 61.0614 38.8733C61.0209 38.5471 61 38.2147 61 37.8775V35.886C61 35.5488 61.0209 35.2164 61.0614 34.8902C61.0209 34.5639 61 34.2316 61 33.8944V31.9029C61 31.5657 61.0209 31.2333 61.0614 30.9071C61.0209 30.5808 61 30.2485 61 29.9113V27.9198C61 27.5826 61.0209 27.2502 61.0614 26.924C61.0209 26.5977 61 26.2654 61 25.9282V23.9366C61 23.5994 61.0209 23.2671 61.0614 22.9409C61.0209 22.6146 61 22.2823 61 21.9451V19.9535C61 19.6163 61.0209 19.284 61.0614 18.9578C61.0209 18.6315 61 18.2992 61 17.962V15.9704C61 15.6332 61.0209 15.3009 61.0614 14.9746C61.0209 14.6484 61 14.3161 61 13.9789V11.9873C61 11.6501 61.0209 11.3178 61.0614 10.9915C61.0209 10.6653 61 10.333 61 9.99576V9C61 4.58172 64.5817 1 69 1Z" fill="#F8F8F8"/>
<path fill-rule="evenodd" clip-rule="evenodd" d="M69 1C73.4183 1 77 4.58172 77 9V9.99576C77 10.333 76.9791 10.6653 76.9386 10.9915C76.9791 11.3178 77 11.6501 77 11.9873V13.9789C77 14.3161 76.9791 14.6484 76.9386 14.9746C76.9791 15.3009 77 15.6332 77 15.9704V17.962C77 18.2992 76.9791 18.6315 76.9386 18.9578C76.9791 19.284 77 19.6163 77 19.9535V21.9451C77 22.2823 76.9791 22.6146 76.9386 22.9409C76.9791 23.2671 77 23.5994 77 23.9366V25.9282C77 26.2654 76.9791 26.5977 76.9386 26.924C76.9791 27.2502 77 27.5825 77 27.9198V29.9113C77 30.2485 76.9791 30.5808 76.9386 30.9071C76.9791 31.2333 77 31.5657 77 31.9029V33.8944C77 34.2316 76.9791 34.5639 76.9386 34.8902C76.9791 35.2164 77 35.5488 77 35.886V37.8775C77 38.2147 76.9791 38.5471 76.9386 38.8733C76.9791 39.1995 77 39.5319 77 39.8691V41.8606C77 42.1978 76.9791 42.5302 76.9386 42.8564C76.9791 43.1826 77 43.515 77 43.8522V45.8437C77 46.1809 76.9791 46.5133 76.9386 46.8395C76.9791 47.1657 77 47.4981 77 47.8353V49.8268C77 50.164 76.9791 50.4964 76.9386 50.8226C76.9791 51.1488 77 51.4812 77 51.8184V53.8099C77 54.1471 76.9791 54.4795 76.9386 54.8057C76.9791 55.132 77 55.4643 77 55.8015V57.793C77 58.1302 76.9791 58.4626 76.9386 58.7888C76.9791 59.1151 77 59.4474 77 59.7846V61.7761C77 62.1133 76.9791 62.4457 76.9386 62.7719C76.9791 63.0982 77 63.4305 77 63.7677V65.7592C77 66.0965 76.9791 66.4288 76.9386 66.755C76.9791 67.0813 77 67.4136 77 67.7508V69.7423C77 70.0795 76.9791 70.4119 76.9386 70.7381C76.9791 71.0644 77 71.3967 77 71.7339V73.7254C77 74.0626 76.9791 74.395 76.9386 74.7212C76.9791 75.0475 77 75.3798 77 75.717V77.7085C77 78.0457 76.9791 78.3781 76.9386 78.7043C76.9791 79.0306 77 79.3629 77 79.7001V81.6917C77 82.0289 76.9791 82.3612 76.9386 82.6874C76.9791 83.0137 77 83.346 77 83.6832V85.6748C77 86.012 76.9791 86.3443 76.9386 86.6705C76.9791 86.9968 77 87.3291 77 87.6663V89.6579C77 89.9951 76.9791 90.3274 76.9386 90.6536C76.9791 90.9799 77 91.3122 77 91.6494V93.641C77 93.9782 76.9791 94.3105 76.9386 94.6367C76.9791 94.963 77 95.2953 77 95.6325V97.6241C77 97.9613 76.9791 98.2936 76.9386 98.6198C76.9791 98.9461 77 99.2784 77 99.6156V101.607C77 101.944 76.9791 102.277 76.9386 102.603C76.9791 102.929 77 103.262 77 103.599V105.59C77 105.927 76.9791 106.26 76.9386 106.586C76.9791 106.912 77 107.245 77 107.582V108.578C77 108.984 76.9953 109.389 76.9858 109.791C76.9763 110.196 76.9368 110.594 76.8696 110.981C76.9001 111.375 76.9018 111.775 76.8729 112.18C76.8149 112.992 76.7372 113.794 76.6403 114.587C76.5905 114.994 76.5109 115.39 76.404 115.774C76.3946 116.173 76.3551 116.576 76.2838 116.982C76.1402 117.798 75.9756 118.603 75.7904 119.395C75.696 119.8 75.5725 120.189 75.4225 120.563C75.3687 120.963 75.2837 121.364 75.1663 121.764C74.9287 122.571 74.6694 123.364 74.3889 124.142C74.2454 124.54 74.0737 124.92 73.8767 125.279C73.7744 125.677 73.64 126.073 73.4722 126.462C73.1386 127.236 72.7835 127.994 72.4078 128.734C72.2137 129.117 71.993 129.477 71.7491 129.814C71.5961 130.202 71.4108 130.582 71.1922 130.952C70.7614 131.681 70.3101 132.391 69.8393 133.082C69.5966 133.438 69.3302 133.768 69.0437 134.072C68.8411 134.438 68.6072 134.792 68.3415 135.132C67.8163 135.803 67.2721 136.452 66.7102 137.08C66.4231 137.401 66.116 137.693 65.7923 137.957C65.5437 138.292 65.2655 138.612 64.9578 138.913C64.3493 139.509 63.7242 140.081 63.084 140.63C62.7566 140.911 62.413 141.16 62.0568 141.379C61.7659 141.679 61.4476 141.96 61.1025 142.218C60.4237 142.727 59.7311 143.211 59.0261 143.67C58.6657 143.904 58.2935 144.106 57.9128 144.276C57.5861 144.535 57.2349 144.771 56.8601 144.982C56.1221 145.397 55.3729 145.787 54.6141 146.151C54.2272 146.336 53.8327 146.488 53.4342 146.607C53.0774 146.821 52.6993 147.009 52.3013 147.17C51.5186 147.485 50.7275 147.774 49.9296 148.037C49.5218 148.171 49.1109 148.271 48.7001 148.338C48.3186 148.504 47.9191 148.643 47.5035 148.751C46.6864 148.963 45.8636 149.148 45.0367 149.307C44.6148 149.388 44.1944 149.434 43.7782 149.447C43.3781 149.563 42.9637 149.649 42.5373 149.702C41.6976 149.807 40.8549 149.884 40.0108 149.934C39.5799 149.959 39.1549 149.95 38.7386 149.908C38.3246 149.971 37.9003 150.002 37.4682 149.999C36.6184 149.992 35.7685 149.957 34.92 149.893C34.4868 149.861 34.0643 149.794 33.6549 149.697C33.2334 149.703 32.8059 149.676 32.3754 149.614C31.5285 149.491 30.6845 149.339 29.8453 149.157C29.4172 149.064 29.0046 148.939 28.6096 148.784C28.1879 148.731 27.7649 148.644 27.3439 148.521C26.5166 148.279 25.6959 148.006 24.8835 147.702C24.4697 147.548 24.0762 147.363 23.7047 147.15C23.2917 147.036 22.8825 146.887 22.4807 146.702C21.6938 146.34 20.9174 145.947 20.1533 145.523C19.7646 145.308 19.4008 145.065 19.0632 144.798C18.6699 144.622 18.2855 144.413 17.9141 144.168C17.187 143.69 16.4745 143.181 15.7784 142.643C15.4274 142.371 15.1052 142.076 14.8123 141.762C14.4511 141.529 14.1039 141.265 13.7746 140.967C13.1324 140.388 12.508 139.781 11.903 139.146C11.5962 138.824 11.3215 138.484 11.0789 138.128C10.756 137.844 10.4519 137.53 10.1703 137.187C9.63017 136.529 9.1099 135.847 8.61061 135.14C8.35845 134.784 8.13958 134.414 7.95338 134.034C7.67984 133.712 7.42823 133.365 7.20215 132.993C6.76305 132.269 6.34489 131.525 5.94846 130.761C5.75243 130.383 5.58952 129.996 5.45868 129.605C5.23655 129.258 5.03836 128.89 4.86731 128.502C4.53318 127.743 4.2194 126.967 3.92651 126.174C3.78174 125.781 3.66963 125.385 3.5888 124.988C3.41346 124.624 3.2635 124.242 3.1418 123.844C2.90604 123.073 2.68906 122.287 2.49122 121.487C2.39244 121.088 2.32553 120.688 2.28889 120.291C2.1556 119.916 2.04862 119.527 1.97053 119.124C1.82077 118.353 1.68799 117.569 1.57244 116.774C1.51438 116.374 1.48693 115.977 1.48832 115.585C1.39282 115.206 1.32394 114.816 1.28393 114.415C1.20742 113.65 1.14622 112.874 1.10051 112.088C1.07755 111.693 1.08362 111.304 1.11687 110.921C1.05459 110.543 1.01871 110.156 1.01121 109.762C1.00375 109.37 1 108.975 1 108.578C1 104.159 4.58172 100.578 9 100.578C13.4183 100.578 17 104.159 17 108.578C17 108.874 17.0028 109.168 17.0083 109.458C17.0138 109.746 17.004 110.031 16.9795 110.312C17.0252 110.59 17.0568 110.872 17.0735 111.159C17.1066 111.728 17.1505 112.283 17.2046 112.825C17.2326 113.105 17.2458 113.383 17.2448 113.658C17.3119 113.924 17.3659 114.196 17.4062 114.473C17.486 115.022 17.5766 115.556 17.6774 116.076C17.7293 116.343 17.7672 116.61 17.7917 116.876C17.8806 117.125 17.958 117.382 18.023 117.645C18.1526 118.169 18.293 118.676 18.4432 119.168C18.5196 119.418 18.5833 119.669 18.6344 119.921C18.7451 120.15 18.8458 120.387 18.936 120.631C19.1174 121.123 19.3092 121.597 19.5104 122.053C19.612 122.284 19.7019 122.517 19.7802 122.752C19.9129 122.959 20.0373 123.174 20.1527 123.396C20.3852 123.844 20.6274 124.275 20.8785 124.688C21.0061 124.899 21.1229 125.112 21.2291 125.329C21.3847 125.512 21.5335 125.703 21.6748 125.903C21.9541 126.298 22.2425 126.676 22.5392 127.038C22.6923 127.224 22.8355 127.416 22.969 127.611C23.1463 127.767 23.3183 127.932 23.4843 128.106C23.8121 128.45 24.1488 128.778 24.4938 129.089C24.6694 129.247 24.8363 129.412 24.9945 129.582C25.1896 129.707 25.381 129.842 25.5679 129.987C25.9404 130.275 26.3218 130.547 26.7112 130.804C26.9094 130.934 27.0999 131.072 27.2825 131.216C27.4954 131.311 27.706 131.416 27.9137 131.531C28.3251 131.759 28.7448 131.972 29.1719 132.169C29.3896 132.269 29.6006 132.378 29.8047 132.494C30.0319 132.557 30.2582 132.63 30.4832 132.714C30.9288 132.881 31.3816 133.031 31.8407 133.166C32.074 133.234 32.3019 133.312 32.5239 133.399C32.7612 133.429 32.9992 133.469 33.2374 133.521C33.7089 133.623 34.1857 133.709 34.6671 133.779C34.9113 133.814 35.1514 133.86 35.3869 133.917C35.6295 133.913 35.8744 133.92 36.1211 133.939C36.6086 133.975 37.0992 133.996 37.592 133.999C37.8419 134.001 38.0891 134.015 38.333 134.039C38.5757 134.002 38.8223 133.976 39.0723 133.961C39.5656 133.932 40.0597 133.887 40.5533 133.825C40.8032 133.794 41.0518 133.775 41.2985 133.767C41.5359 133.698 41.7786 133.64 42.0261 133.593C42.5143 133.499 43.0008 133.389 43.4844 133.264C43.7292 133.2 43.9744 133.149 44.2192 133.109C44.4466 133.01 44.6806 132.92 44.9209 132.841C45.3936 132.685 45.862 132.514 46.3254 132.328C46.5597 132.233 46.7958 132.151 47.0331 132.08C47.2455 131.953 47.4656 131.834 47.6932 131.725C48.1416 131.51 48.5837 131.28 49.0186 131.035C49.2382 130.912 49.461 130.8 49.6865 130.699C49.88 130.546 50.0823 130.401 50.2932 130.263C50.7074 129.993 51.1137 129.709 51.5113 129.412C51.7123 129.261 51.918 129.122 52.1278 128.993C52.2992 128.816 52.4801 128.646 52.6706 128.482C53.0448 128.162 53.4098 127.827 53.7648 127.48C53.9435 127.305 54.1282 127.14 54.3183 126.985C54.4644 126.789 54.6208 126.597 54.7875 126.41C55.1154 126.044 55.4334 125.664 55.7406 125.272C55.8954 125.074 56.0577 124.885 56.2268 124.706C56.3463 124.49 56.4769 124.278 56.6185 124.07C56.8951 123.665 57.1612 123.246 57.4161 122.814C57.5452 122.596 57.683 122.386 57.8289 122.184C57.9205 121.953 58.0237 121.723 58.1387 121.496C58.3631 121.054 58.5766 120.598 58.7783 120.13C58.8798 119.895 58.9911 119.667 59.1118 119.447C59.1745 119.202 59.2493 118.959 59.3365 118.717C59.5085 118.24 59.669 117.75 59.8172 117.246C59.8905 116.997 59.975 116.754 60.0698 116.518C60.1039 116.264 60.1504 116.01 60.2098 115.756C60.3273 115.253 60.4329 114.737 60.5258 114.209C60.5721 113.946 60.6307 113.689 60.7009 113.437C60.7071 113.175 60.7261 112.91 60.7587 112.644C60.8226 112.121 60.8745 111.587 60.9135 111.04C60.9331 110.766 60.9662 110.497 61.0121 110.232C60.9913 109.963 60.9837 109.691 60.9902 109.416C60.9967 109.139 61 108.86 61 108.578V107.582C61 107.245 61.0209 106.912 61.0614 106.586C61.0209 106.26 61 105.927 61 105.59V103.599C61 103.262 61.0209 102.929 61.0614 102.603C61.0209 102.277 61 101.944 61 101.607V99.6156C61 99.2784 61.0209 98.9461 61.0614 98.6198C61.0209 98.2936 61 97.9613 61 97.6241V95.6325C61 95.2953 61.0209 94.963 61.0614 94.6367C61.0209 94.3105 61 93.9782 61 93.641V91.6494C61 91.3122 61.0209 90.9799 61.0614 90.6536C61.0209 90.3274 61 89.9951 61 89.6579V87.6663C61 87.3291 61.0209 86.9968 61.0614 86.6705C61.0209 86.3443 61 86.012 61 85.6748V83.6832C61 83.346 61.0209 83.0137 61.0614 82.6874C61.0209 82.3612 61 82.0289 61 81.6917V79.7001C61 79.3629 61.0209 79.0306 61.0614 78.7043C61.0209 78.3781 61 78.0457 61 77.7085V75.717C61 75.3798 61.0209 75.0475 61.0614 74.7212C61.0209 74.395 61 74.0627 61 73.7254V71.7339C61 71.3967 61.0209 71.0644 61.0614 70.7381C61.0209 70.4119 61 70.0795 61 69.7423V67.7508C61 67.4136 61.0209 67.0813 61.0614 66.755C61.0209 66.4288 61 66.0965 61 65.7592V63.7677C61 63.4305 61.0209 63.0982 61.0614 62.7719C61.0209 62.4457 61 62.1133 61 61.7761V59.7846C61 59.4474 61.0209 59.1151 61.0614 58.7888C61.0209 58.4626 61 58.1302 61 57.793V55.8015C61 55.4643 61.0209 55.132 61.0614 54.8057C61.0209 54.4795 61 54.1471 61 53.8099V51.8184C61 51.4812 61.0209 51.1488 61.0614 50.8226C61.0209 50.4964 61 50.164 61 49.8268V47.8353C61 47.4981 61.0209 47.1657 61.0614 46.8395C61.0209 46.5133 61 46.1809 61 45.8437V43.8522C61 43.515 61.0209 43.1826 61.0614 42.8564C61.0209 42.5302 61 42.1978 61 41.8606V39.8691C61 39.5319 61.0209 39.1995 61.0614 38.8733C61.0209 38.5471 61 38.2147 61 37.8775V35.886C61 35.5488 61.0209 35.2164 61.0614 34.8902C61.0209 34.5639 61 34.2316 61 33.8944V31.9029C61 31.5657 61.0209 31.2333 61.0614 30.9071C61.0209 30.5808 61 30.2485 61 29.9113V27.9198C61 27.5826 61.0209 27.2502 61.0614 26.924C61.0209 26.5977 61 26.2654 61 25.9282V23.9366C61 23.5994 61.0209 23.2671 61.0614 22.9409C61.0209 22.6146 61 22.2823 61 21.9451V19.9535C61 19.6163 61.0209 19.284 61.0614 18.9578C61.0209 18.6315 61 18.2992 61 17.962V15.9704C61 15.6332 61.0209 15.3009 61.0614 14.9746C61.0209 14.6484 61 14.3161 61 13.9789V11.9873C61 11.6501 61.0209 11.3178 61.0614 10.9915C61.0209 10.6653 61 10.333 61 9.99576V9C61 4.58172 64.5817 1 69 1Z" stroke="#AEAEAE" stroke-width="2" stroke-linecap="round" stroke-linejoin="bevel" mask="url(#path-1-outside-1)"/>
<path fill-rule="evenodd" clip-rule="evenodd" d="M77 9V21.4472H61V9H77ZM77 46.3416V71.236H61V46.3416H77ZM77 96.1304V108.578C77 113.983 76.1611 118.998 74.5952 123.555L59.4633 118.357C60.4225 115.565 61 112.315 61 108.578V96.1304H77ZM2.96403 123.248C1.67305 118.801 1 113.901 1 108.578H17C17 112.554 17.5023 115.937 18.3295 118.786L2.96403 123.248ZM54.0424 146.419C44.3505 150.878 32.9607 151.299 23.076 146.97L29.4955 132.314C34.9084 134.685 41.5221 134.567 47.3554 131.884L54.0424 146.419Z" fill="#FF0000"/>
</svg>
