<svg width="62" height="58" viewBox="0 0 62 58" fill="none" xmlns="http://www.w3.org/2000/svg">
<path d="M28.3279 2.23608C29.4413 0.054331 32.5587 0.0543273 33.6721 2.23608L40.7982 16.1997C41.2341 17.0538 42.0521 17.6481 42.9992 17.7988L58.4814 20.2611C60.9005 20.6458 61.8638 23.6107 60.1329 25.3438L49.0548 36.4361C48.3772 37.1146 48.0647 38.0762 48.2141 39.0235L50.6566 54.5089C51.0382 56.9284 48.5162 58.7608 46.333 57.6502L32.3603 50.542C31.5055 50.1072 30.4945 50.1072 29.6397 50.542L15.667 57.6502C13.4838 58.7608 10.9618 56.9284 11.3434 54.5089L13.7859 39.0235C13.9353 38.0762 13.6228 37.1146 12.9452 36.4361L1.86709 25.3438C0.136189 23.6107 1.09953 20.6458 3.51857 20.2611L19.0008 17.7988C19.9479 17.6481 20.7659 17.0538 21.2018 16.1997L28.3279 2.23608Z" fill="#FFEC41"/>
</svg>
